<svg version="1.1" xmlns="http://www.w3.org/2000/svg" xmlns:xlink="http://www.w3.org/1999/xlink" width="222.30517578125" height="566"><defs/><g><g transform="translate(-318,-230) scale(1,1)"><rect fill="#C0C0C0" stroke="none" x="335" y="247" width="202.30517578125" height="100" opacity="0.2"/></g><g transform="translate(-318,-230) scale(1,1)"><rect fill="#ffffff" stroke="none" x="328" y="240" width="202.30517578125" height="100"/></g><g transform="translate(-318,-230) scale(1,1)"><path fill="none" stroke="#000000" d="M 328 240 L 530.30517578125 240 L 530.30517578125 340 L 328 340 L 328 240 Z Z" stroke-miterlimit="10"/></g><g transform="translate(-318,-230) scale(1,1)"><path fill="none" stroke="#000000" d="M 328 278 L 530.30517578125 278" stroke-miterlimit="10"/></g><g transform="translate(-318,-230) scale(1,1)"><path fill="none" stroke="#000000" d="M 328 288 L 530.30517578125 288" stroke-miterlimit="10"/></g><g transform="translate(-318,-230) scale(1,1)"><g><path fill="none" stroke="none"/><text fill="#000000" stroke="none" font-family="Arial" font-size="13px" font-style="normal" font-weight="normal" text-decoration="none" x="394.818115234375" y="257.5">«boundary»</text></g></g><g transform="translate(-318,-230) scale(1,1)"><g><path fill="none" stroke="none"/><text fill="#000000" stroke="none" font-family="Arial" font-size="13px" font-style="normal" font-weight="bold" text-decoration="none" x="406.74853515625" y="272.5">LoginUI</text></g></g><g transform="translate(-318,-230) scale(1,1)"><g><path fill="none" stroke="none"/><text fill="#000000" stroke="none" font-family="Arial" font-size="13px" font-style="normal" font-weight="normal" text-decoration="none" x="333" y="305.5">+loginButtonPressed()</text></g></g><g transform="translate(-318,-230) scale(1,1)"><g><path fill="none" stroke="none"/><text fill="#000000" stroke="none" font-family="Arial" font-size="13px" font-style="normal" font-weight="normal" text-decoration="none" x="333" y="320.5">+signInFacebookButtonPressed()</text></g></g><g transform="translate(-318,-230) scale(1,1)"><g><path fill="none" stroke="none"/><text fill="#000000" stroke="none" font-family="Arial" font-size="13px" font-style="normal" font-weight="normal" text-decoration="none" x="333" y="335.5">+signInGoogleButtonPressed()</text></g></g><g transform="translate(-318,-230) scale(1,1)"><rect fill="#C0C0C0" stroke="none" x="359" y="455" width="154.87548828125" height="115" opacity="0.2"/></g><g transform="translate(-318,-230) scale(1,1)"><rect fill="#ffffff" stroke="none" x="352" y="448" width="154.87548828125" height="115"/></g><g transform="translate(-318,-230) scale(1,1)"><path fill="none" stroke="#000000" d="M 352 448 L 506.87548828125 448 L 506.87548828125 563 L 352 563 L 352 448 Z Z" stroke-miterlimit="10"/></g><g transform="translate(-318,-230) scale(1,1)"><path fill="none" stroke="#000000" d="M 352 486 L 506.87548828125 486" stroke-miterlimit="10"/></g><g transform="translate(-318,-230) scale(1,1)"><path fill="none" stroke="#000000" d="M 352 496 L 506.87548828125 496" stroke-miterlimit="10"/></g><g transform="translate(-318,-230) scale(1,1)"><g><path fill="none" stroke="none"/><text fill="#000000" stroke="none" font-family="Arial" font-size="13px" font-style="normal" font-weight="normal" text-decoration="none" x="402.6982421875" y="465.5">«control»</text></g></g><g transform="translate(-318,-230) scale(1,1)"><g><path fill="none" stroke="none"/><text fill="#000000" stroke="none" font-family="Arial" font-size="13px" font-style="normal" font-weight="bold" text-decoration="none" x="363.06982421875" y="480.5">EffettuaLoginController</text></g></g><g transform="translate(-318,-230) scale(1,1)"><g><path fill="none" stroke="none"/><text fill="#000000" stroke="none" font-family="Arial" font-size="13px" font-style="normal" font-weight="normal" text-decoration="none" x="357" y="513.5">+login()</text></g></g><g transform="translate(-318,-230) scale(1,1)"><g><path fill="none" stroke="none"/><text fill="#000000" stroke="none" font-family="Arial" font-size="13px" font-style="normal" font-weight="normal" text-decoration="none" x="357" y="528.5">+signInFacebook()</text></g></g><g transform="translate(-318,-230) scale(1,1)"><g><path fill="none" stroke="none"/><text fill="#000000" stroke="none" font-family="Arial" font-size="13px" font-style="normal" font-weight="normal" text-decoration="none" x="357" y="543.5">+signInGoogle()</text></g></g><g transform="translate(-318,-230) scale(1,1)"><g><path fill="none" stroke="none"/><text fill="#000000" stroke="none" font-family="Arial" font-size="13px" font-style="normal" font-weight="normal" text-decoration="none" x="357" y="558.5">+authenticate()</text></g></g><g transform="translate(-318,-230) scale(1,1)"><path fill="none" stroke="#000000" d="M 429 341 L 429 447" stroke-miterlimit="10"/></g><g transform="translate(-318,-230) scale(1,1)"><rect fill="#C0C0C0" stroke="none" x="399" y="663" width="80" height="130" opacity="0.2"/></g><g transform="translate(-318,-230) scale(1,1)"><rect fill="#ffffff" stroke="none" x="392" y="656" width="80" height="130"/></g><g transform="translate(-318,-230) scale(1,1)"><path fill="none" stroke="#000000" d="M 392 656 L 472 656 L 472 786 L 392 786 L 392 656 Z Z" stroke-miterlimit="10"/></g><g transform="translate(-318,-230) scale(1,1)"><path fill="none" stroke="#000000" d="M 392 694 L 472 694" stroke-miterlimit="10"/></g><g transform="translate(-318,-230) scale(1,1)"><path fill="none" stroke="#000000" d="M 392 777 L 472 777" stroke-miterlimit="10"/></g><g transform="translate(-318,-230) scale(1,1)"><g><path fill="none" stroke="none"/><text fill="#000000" stroke="none" font-family="Arial" font-size="13px" font-style="normal" font-weight="normal" text-decoration="none" x="409.234130859375" y="673.5">«entity»</text></g></g><g transform="translate(-318,-230) scale(1,1)"><g><path fill="none" stroke="none"/><text fill="#000000" stroke="none" font-family="Arial" font-size="13px" font-style="normal" font-weight="bold" text-decoration="none" x="418.2763671875" y="688.5">User</text></g></g><g transform="translate(-318,-230) scale(1,1)"><g><path fill="none" stroke="none"/><text fill="#000000" stroke="none" font-family="Arial" font-size="13px" font-style="normal" font-weight="normal" text-decoration="none" x="397" y="711.5">+nome</text></g></g><g transform="translate(-318,-230) scale(1,1)"><g><path fill="none" stroke="none"/><text fill="#000000" stroke="none" font-family="Arial" font-size="13px" font-style="normal" font-weight="normal" text-decoration="none" x="397" y="726.5">+cognome</text></g></g><g transform="translate(-318,-230) scale(1,1)"><g><path fill="none" stroke="none"/><text fill="#000000" stroke="none" font-family="Arial" font-size="13px" font-style="normal" font-weight="normal" text-decoration="none" x="397" y="741.5">+email</text></g></g><g transform="translate(-318,-230) scale(1,1)"><g><path fill="none" stroke="none"/><text fill="#000000" stroke="none" font-family="Arial" font-size="13px" font-style="normal" font-weight="normal" text-decoration="none" x="397" y="756.5">+password</text></g></g><g transform="translate(-318,-230) scale(1,1)"><g><path fill="none" stroke="none"/><text fill="#000000" stroke="none" font-family="Arial" font-size="13px" font-style="normal" font-weight="normal" text-decoration="none" x="397" y="771.5">+username</text></g></g><g transform="translate(-318,-230) scale(1,1)"><path fill="none" stroke="#000000" d="M 430 564 L 431 655" stroke-miterlimit="10"/></g></g></svg>