<svg width="498" height="264" viewBox="0 0 498 264" fill="none" xmlns="http://www.w3.org/2000/svg">
<path d="M12.032 263V173.4H25.728L81.92 242.392H75.136V173.4H91.648V263H77.952L21.76 194.008H28.544V263H12.032ZM156.233 263V249.176L155.337 246.232V222.04C155.337 217.347 153.929 213.72 151.113 211.16C148.297 208.515 144.03 207.192 138.313 207.192C134.473 207.192 130.676 207.789 126.921 208.984C123.252 210.179 120.137 211.843 117.577 213.976L111.305 202.328C114.974 199.512 119.326 197.421 124.361 196.056C129.481 194.605 134.772 193.88 140.233 193.88C150.132 193.88 157.769 196.269 163.145 201.048C168.606 205.741 171.337 213.037 171.337 222.936V263H156.233ZM134.729 263.896C129.609 263.896 125.129 263.043 121.289 261.336C117.449 259.544 114.462 257.112 112.329 254.04C110.281 250.883 109.257 247.341 109.257 243.416C109.257 239.576 110.153 236.12 111.945 233.048C113.822 229.976 116.852 227.544 121.033 225.752C125.214 223.96 130.761 223.064 137.673 223.064H157.513V233.688H138.825C133.364 233.688 129.694 234.584 127.817 236.376C125.94 238.083 125.001 240.216 125.001 242.776C125.001 245.677 126.153 247.981 128.457 249.688C130.761 251.395 133.961 252.248 138.057 252.248C141.982 252.248 145.481 251.352 148.553 249.56C151.71 247.768 153.972 245.123 155.337 241.624L158.025 251.224C156.489 255.235 153.716 258.349 149.705 260.568C145.78 262.787 140.788 263.896 134.729 263.896ZM211.583 263V187.48H181.887V173.4H257.919V187.48H228.223V263H211.583ZM292.591 263.896C285.594 263.896 279.364 262.403 273.903 259.416C268.442 256.344 264.132 252.163 260.975 246.872C257.818 241.581 256.239 235.565 256.239 228.824C256.239 221.997 257.818 215.981 260.975 210.776C264.132 205.485 268.442 201.347 273.903 198.36C279.364 195.373 285.594 193.88 292.591 193.88C299.674 193.88 305.946 195.373 311.407 198.36C316.954 201.347 321.263 205.443 324.335 210.648C327.492 215.853 329.071 221.912 329.071 228.824C329.071 235.565 327.492 241.581 324.335 246.872C321.263 252.163 316.954 256.344 311.407 259.416C305.946 262.403 299.674 263.896 292.591 263.896ZM292.591 250.2C296.516 250.2 300.015 249.347 303.087 247.64C306.159 245.933 308.548 243.459 310.255 240.216C312.047 236.973 312.943 233.176 312.943 228.824C312.943 224.387 312.047 220.589 310.255 217.432C308.548 214.189 306.159 211.715 303.087 210.008C300.015 208.301 296.559 207.448 292.719 207.448C288.794 207.448 285.295 208.301 282.223 210.008C279.236 211.715 276.847 214.189 275.055 217.432C273.263 220.589 272.367 224.387 272.367 228.824C272.367 233.176 273.263 236.973 275.055 240.216C276.847 243.459 279.236 245.933 282.223 247.64C285.295 249.347 288.751 250.2 292.591 250.2ZM373.299 263.896C367.496 263.896 362.376 262.829 357.939 260.696C353.502 258.477 350.046 255.149 347.571 250.712C345.096 246.189 343.859 240.515 343.859 233.688V194.648H359.859V231.512C359.859 237.656 361.224 242.264 363.955 245.336C366.771 248.323 370.739 249.816 375.859 249.816C379.614 249.816 382.856 249.048 385.587 247.512C388.403 245.976 390.579 243.672 392.115 240.6C393.736 237.528 394.547 233.731 394.547 229.208V194.648H410.547V263H395.315V244.568L398.003 250.2C395.699 254.637 392.328 258.051 387.891 260.44C383.454 262.744 378.59 263.896 373.299 263.896ZM431.496 263V194.648H446.728V213.464L444.936 207.96C446.984 203.352 450.184 199.853 454.536 197.464C458.973 195.075 464.477 193.88 471.048 193.88V209.112C470.365 208.941 469.725 208.856 469.128 208.856C468.531 208.771 467.933 208.728 467.336 208.728C461.277 208.728 456.456 210.52 452.872 214.104C449.288 217.603 447.496 222.851 447.496 229.848V263H431.496Z" fill="white"/>
<path d="M54.6506 143.916C54.6506 143.916 116.063 96.1686 140.909 74.1681C165.755 52.166 171.069 54.3502 172.476 56.3786C173.882 58.4087 196.387 37.6554 205.605 27.2017C214.823 16.7462 231.078 -9.15511 241.701 3.32869C252.326 15.8092 300.768 82.1257 312.722 76.2744C324.676 70.4214 330.069 65.0395 339.912 73.9342C349.756 82.8273 417.03 152.577 412.81 151.172C408.591 149.768 384.213 128.235 380.698 131.512C377.182 134.788 385.62 151.874 376.948 142.044C368.276 132.214 334.52 93.359 327.49 91.4882C320.457 89.6157 331.006 113.255 325.85 112.553C320.691 111.85 298.659 85.403 297.018 84.2321C295.377 83.0611 314.833 113.958 314.833 122.15C314.833 130.341 277.094 87.9771 268.891 87.2755C260.686 86.5723 262.797 118.169 265.14 128.001C267.484 137.831 267.484 139.002 244.747 112.319C222.01 85.6369 226.933 76.976 231.386 77.2098C235.839 77.4437 232.325 69.4861 230.918 54.74C229.513 39.9956 242.872 38.0385 247.092 36.6769C251.311 35.3135 246.857 28.0575 240.058 22.9094C233.262 17.7596 225.292 9.48349 205.368 36.6769C185.444 63.8686 179.82 68.0812 192.243 77.6775C204.667 87.2755 265.609 152.149 260.922 151.192C256.233 150.235 211.229 114.192 209.586 119.34C207.947 124.49 216.385 134.554 208.181 130.107C199.976 125.661 191.538 112.319 188.258 118.169C184.976 124.02 191.774 133.852 188.726 140.405C185.679 146.958 168.567 135.489 162.708 117.234C156.849 98.9781 168.099 96.1686 172.786 98.7443C177.475 101.318 181.226 98.2766 177.709 87.5094C174.193 76.7422 171.615 66.4443 160.364 72.7633C149.113 79.0823 120.75 94.2961 129.658 92.6575C138.566 91.0205 152.629 82.1258 149.348 87.5094C146.065 92.8913 129.658 98.7442 110.205 108.105C90.7482 117.467 39.8847 157.725 54.6506 143.916" fill="white"/>
<path d="M332.946 23.3406C332.946 36.2308 322.48 46.6796 309.571 46.6796C296.661 46.6796 286.195 36.2308 286.195 23.3406C286.195 10.4488 296.661 2.22048e-05 309.571 2.22048e-05C322.48 2.22048e-05 332.946 10.4488 332.946 23.3406Z" fill="white"/>
</svg>
